<svg width="34" height="17" viewBox="0 0 34 17" fill="none" xmlns="http://www.w3.org/2000/svg">
<path d="M11.5244 16.5996C10.8037 16.5996 10.2998 16.4912 10.0127 16.2744C9.72559 16.0635 9.58203 15.7559 9.58203 15.3516C9.58203 14.7832 9.75195 14.1885 10.0918 13.5674C10.4375 12.9463 10.9326 12.3633 11.5771 11.8184C12.2275 11.2734 13.0098 10.8311 13.9238 10.4912C14.8379 10.1514 15.8633 9.98145 17 9.98145C18.1426 9.98145 19.1709 10.1514 20.085 10.4912C20.999 10.8311 21.7783 11.2734 22.4229 11.8184C23.0732 12.3633 23.5684 12.9463 23.9082 13.5674C24.2539 14.1885 24.4268 14.7832 24.4268 15.3516C24.4268 15.7559 24.2832 16.0635 23.9961 16.2744C23.709 16.4912 23.2021 16.5996 22.4756 16.5996H11.5244ZM17.0088 8.41699C16.3701 8.41699 15.7812 8.24414 15.2422 7.89844C14.709 7.55273 14.2783 7.08691 13.9502 6.50098C13.6279 5.91504 13.4639 5.25879 13.458 4.53223C13.458 3.81738 13.6221 3.17285 13.9502 2.59863C14.2783 2.01855 14.709 1.55859 15.2422 1.21875C15.7812 0.878906 16.3701 0.708984 17.0088 0.708984C17.6475 0.708984 18.2334 0.875977 18.7666 1.20996C19.3057 1.54395 19.7363 2.00098 20.0586 2.58105C20.3867 3.15527 20.5508 3.7998 20.5508 4.51465C20.5508 5.24707 20.3867 5.90918 20.0586 6.50098C19.7363 7.08691 19.3057 7.55273 18.7666 7.89844C18.2334 8.24414 17.6475 8.41699 17.0088 8.41699ZM1.99707 16.5996C1.40527 16.5996 0.986328 16.4795 0.740234 16.2393C0.494141 16.0049 0.371094 15.6709 0.371094 15.2373C0.371094 14.6396 0.523438 14.0332 0.828125 13.418C1.13281 12.7969 1.56641 12.2256 2.12891 11.7041C2.69727 11.1826 3.37695 10.7607 4.16797 10.4385C4.96484 10.1162 5.85547 9.95508 6.83984 9.95508C7.63672 9.95508 8.34863 10.0605 8.97559 10.2715C9.6084 10.4766 10.168 10.7344 10.6543 11.0449C10.1562 11.4375 9.72559 11.8828 9.3623 12.3809C8.99902 12.873 8.71777 13.3799 8.51855 13.9014C8.3252 14.417 8.22852 14.9092 8.22852 15.3779C8.22852 15.8525 8.3457 16.2598 8.58008 16.5996H1.99707ZM6.83984 8.61914C6.2832 8.61914 5.77051 8.46973 5.30176 8.1709C4.83301 7.86621 4.45801 7.45898 4.17676 6.94922C3.89551 6.43359 3.75488 5.8623 3.75488 5.23535C3.74902 4.6084 3.88965 4.0459 4.17676 3.54785C4.46387 3.04395 4.8418 2.64551 5.31055 2.35254C5.7793 2.05371 6.28906 1.9043 6.83984 1.9043C7.39062 1.9043 7.90039 2.05078 8.36914 2.34375C8.84375 2.63086 9.22168 3.02637 9.50293 3.53027C9.78418 4.02832 9.9248 4.59082 9.9248 5.21777C9.9248 5.85645 9.78418 6.43359 9.50293 6.94922C9.22168 7.45898 8.84668 7.86621 8.37793 8.1709C7.90918 8.46973 7.39648 8.61914 6.83984 8.61914ZM32.0029 16.5996H25.4111C25.6455 16.2598 25.7627 15.8525 25.7627 15.3779C25.7686 14.9092 25.6719 14.417 25.4727 13.9014C25.2793 13.3799 25.001 12.873 24.6377 12.3809C24.2744 11.8828 23.8438 11.4375 23.3457 11.0449C23.8262 10.7344 24.3828 10.4766 25.0156 10.2715C25.6484 10.0605 26.3633 9.95508 27.1602 9.95508C28.1445 9.95508 29.0322 10.1162 29.8232 10.4385C30.6201 10.7607 31.2998 11.1826 31.8623 11.7041C32.4307 12.2256 32.8672 12.7969 33.1719 13.418C33.4766 14.0332 33.6289 14.6396 33.6289 15.2373C33.6289 15.6709 33.5059 16.0049 33.2598 16.2393C33.0137 16.4795 32.5947 16.5996 32.0029 16.5996ZM27.1514 8.61914C26.6006 8.61914 26.0908 8.46973 25.6221 8.1709C25.1533 7.86621 24.7754 7.45898 24.4883 6.94922C24.207 6.43359 24.0664 5.85645 24.0664 5.21777C24.0664 4.59082 24.207 4.02832 24.4883 3.53027C24.7754 3.02637 25.1533 2.63086 25.6221 2.34375C26.0967 2.05078 26.6064 1.9043 27.1514 1.9043C27.708 1.9043 28.2207 2.05371 28.6895 2.35254C29.1582 2.64551 29.5332 3.04395 29.8145 3.54785C30.1016 4.0459 30.2451 4.6084 30.2451 5.23535C30.2451 5.8623 30.1016 6.43359 29.8145 6.94922C29.5332 7.45898 29.1582 7.86621 28.6895 8.1709C28.2266 8.46973 27.7139 8.61914 27.1514 8.61914Z" fill="#9747FF"/>
</svg>
