<svg width="15" height="24" viewBox="0 0 15 24" fill="none" xmlns="http://www.w3.org/2000/svg">
<path d="M0.849609 6.24609C0.849609 5.38021 1.01888 4.57617 1.35742 3.83398C1.70247 3.0918 2.17773 2.44076 2.7832 1.88086C3.39518 1.32096 4.10156 0.888021 4.90234 0.582031C5.70964 0.269531 6.57552 0.113281 7.5 0.113281C8.41797 0.113281 9.2806 0.269531 10.0879 0.582031C10.8952 0.888021 11.6016 1.32096 12.207 1.88086C12.819 2.44076 13.2943 3.0918 13.6328 3.83398C13.9714 4.57617 14.1406 5.38021 14.1406 6.24609C14.1406 6.98828 14.0592 7.64909 13.8965 8.22852C13.7337 8.80794 13.5254 9.3776 13.2715 9.9375C13.0176 10.4974 12.7572 11.1094 12.4902 11.7734C12.2233 12.4375 11.9857 13.2188 11.7773 14.1172C11.569 15.0156 11.429 16.1029 11.3574 17.3789C11.3444 17.6068 11.2663 17.7891 11.123 17.9258C10.9863 18.056 10.7975 18.1211 10.5566 18.1211H4.43359C4.19271 18.1211 4.00391 18.056 3.86719 17.9258C3.73047 17.7891 3.6556 17.6068 3.64258 17.3789C3.57096 16.1029 3.42773 15.0156 3.21289 14.1172C3.00456 13.2188 2.76693 12.4375 2.5 11.7734C2.23958 11.1094 1.98242 10.4974 1.72852 9.9375C1.47461 9.3776 1.26302 8.80794 1.09375 8.22852C0.93099 7.64909 0.849609 6.98828 0.849609 6.24609ZM4.36523 20.3867C4.18945 20.3867 4.03971 20.3249 3.91602 20.2012C3.79232 20.0775 3.73047 19.931 3.73047 19.7617C3.73047 19.5924 3.79232 19.446 3.91602 19.3223C4.03971 19.1986 4.18945 19.1367 4.36523 19.1367H10.6348C10.8105 19.1367 10.957 19.1986 11.0742 19.3223C11.1979 19.446 11.2598 19.5924 11.2598 19.7617C11.2598 19.931 11.1979 20.0775 11.0742 20.2012C10.957 20.3249 10.8105 20.3867 10.6348 20.3867H4.36523ZM7.5 23.2871C6.71875 23.2871 6.04818 23.1146 5.48828 22.7695C4.9349 22.4245 4.63867 21.9688 4.59961 21.4023H10.3906C10.3385 21.9688 10.0358 22.4245 9.48242 22.7695C8.92904 23.1146 8.26823 23.2871 7.5 23.2871Z" fill="#9747FF"/>
</svg>
